<?xml version="1.0" encoding="utf-8"?>
<!-- Generator: Adobe Illustrator 24.1.2, SVG Export Plug-In . SVG Version: 6.00 Build 0)  -->
<svg version="1.1" id="Layer_1" xmlns="http://www.w3.org/2000/svg" xmlns:xlink="http://www.w3.org/1999/xlink" x="0px" y="0px"
	 viewBox="0 0 182 30" style="enable-background:new 0 0 182 30;" xml:space="preserve">
<style type="text/css">
	.st0{display:none;}
	.st1{display:inline;}
	.st2{clip-path:url(#SVGID_2_);}
	.st3{fill:#585D68;}
</style>
<g id="Layer_1_1_" class="st0">
	<g class="st1">
		<g>
			<defs>
				<rect id="SVGID_1_" y="-37.4" width="35" height="28"/>
			</defs>
			<clipPath id="SVGID_2_">
				<use xlink:href="#SVGID_1_"  style="overflow:visible;"/>
			</clipPath>
			<g class="st2">
				<path d="M14.3-23.2c-1.6-1.3-3.4-1.9-5.3-1.9c-4.2,0-7.8,3.4-8.9,8.5c-0.2,0.9,0,1.9,0.5,2.6c0.5,0.7,1.2,1.1,2,1.1h29.9
					c-5.6,0-8.5-2-12.8-5.7L14.3-23.2z M27.1-24.2l-1.5-8.6c-0.2-0.9-0.7-1.8-1.5-2.3s-1.8-0.7-2.7-0.5L11-33.4
					c-1.5,0.3-2.6,1.5-2.8,3.1l-0.4,3.6c0.4,0,0.7-0.1,1.1-0.1c2.3,0,4.5,0.8,6.4,2.3l5.4,4.6c3.9,3.3,6.3,5.3,11.6,5.3
					c1.4,0,2.6-1.2,2.6-2.6C35-18.6,33.4-23.8,27.1-24.2z"/>
			</g>
		</g>
	</g>
	<path class="st1" d="M51.1-28.1c0-1.3,0.6-1.9,1.8-1.9c0.6,0,1.2,0.2,1.6,0.5l1-2.8c-0.7-0.5-1.9-0.7-3-0.7c-3.3,0-5.2,2-5.2,5v0.6
		h-2.1v3h2.1v10.2h3.9v-10.2h3.4v-3h-3.5V-28.1z M61.6-28.1c-2.2,0-4.3,0.6-5.8,1.6l1.4,2.7c1-0.8,2.5-1.3,3.9-1.3
		c2.1,0,3.1,1,3.1,2.6h-3.1c-4.1,0-5.8,1.6-5.8,4c0,2.3,1.9,4.1,5,4.1c2,0,3.4-0.7,4.1-1.9v1.7h3.7v-7.7
		C68.1-26.2,65.7-28.1,61.6-28.1z M61.3-16.8c-1.4,0-2.2-0.7-2.2-1.6s0.6-1.6,2.4-1.6h2.7v1.4C63.8-17.4,62.6-16.8,61.3-16.8z
		 M75.4-26.1v-1.8h-3.7v13.4h3.9v-6.4c0-2.6,1.4-3.8,3.6-3.8c0.3,0,0.5,0,0.9,0.1v-3.6C77.9-28.1,76.3-27.4,75.4-26.1z M99.5-28.1
		c-2,0-3.8,0.8-4.8,2.2c-1-1.5-2.6-2.2-4.4-2.2c-1.7,0-3.2,0.6-4.2,1.8v-1.5h-3.7v13.4h3.9v-6.8c0-2.4,1.2-3.5,2.9-3.5
		c1.6,0,2.6,1,2.6,3.2v7.1h3.9v-6.8c0-2.4,1.2-3.5,3-3.5c1.6,0,2.5,1,2.5,3.2v7.1h3.9v-7.7C105-26.2,102.7-28.1,99.5-28.1z
		 M118.9-27.9v1.7c-1-1.3-2.6-1.9-4.4-1.9c-3.7,0-6.7,2.6-6.7,6.5s3,6.5,6.7,6.5c1.8,0,3.2-0.6,4.3-1.7v0.6c0,2.4-1.2,3.7-4,3.7
		c-1.7,0-3.6-0.6-4.8-1.5l-1.5,2.8c1.6,1.2,4,1.8,6.6,1.8c4.8,0,7.6-2.3,7.6-7.3v-11.2C122.7-27.9,118.9-27.9,118.9-27.9z
		 M115.2-18.3c-2.1,0-3.6-1.3-3.6-3.3s1.5-3.3,3.6-3.3c2,0,3.5,1.3,3.5,3.3S117.2-18.3,115.2-18.3z M131.6-28.1
		c-2.1,0-4.3,0.6-5.8,1.6l1.4,2.7c1-0.8,2.4-1.3,3.9-1.3c2.1,0,3.1,1,3.1,2.6h-3.1c-4.1,0-5.8,1.6-5.8,4c0,2.3,1.9,4.1,5,4.1
		c2,0,3.4-0.7,4.1-1.9v1.7h3.6v-7.7C138.1-26.2,135.7-28.1,131.6-28.1z M131.3-16.8c-1.4,0-2.2-0.7-2.2-1.6s0.6-1.6,2.4-1.6h2.7v1.4
		C133.7-17.4,132.6-16.8,131.3-16.8z M158.8-28.1c-2,0-3.8,0.8-4.9,2.2c-0.9-1.5-2.5-2.2-4.4-2.2c-1.7,0-3.2,0.6-4.2,1.8v-1.5h-3.7
		v13.4h3.9v-6.8c0-2.4,1.2-3.5,2.9-3.5c1.6,0,2.6,1,2.6,3.2v7.1h3.9v-6.8c0-2.4,1.2-3.5,3-3.5c1.6,0,2.6,1,2.6,3.2v7.1h3.9v-7.7
		C164.3-26.2,162-28.1,158.8-28.1z M181.2-21.1c0-4.3-3.1-7-7-7c-4.1,0-7.2,2.9-7.2,6.9s3,6.9,7.7,6.9c2.4,0,4.3-0.8,5.6-2.2
		l-2.1-2.3c-0.9,0.9-2,1.3-3.4,1.3c-2.1,0-3.5-1-3.9-2.7h10.2C181.1-20.4,181.2-20.8,181.2-21.1z M174.2-25.1c1.8,0,3,1.1,3.3,2.8
		h-6.6C171.1-24,172.4-25.1,174.2-25.1z"/>
</g>
<g id="Layer_2_1_">
	<g>
		<path class="st3" d="M46.1,11V8.1h9.3V11H46.1z M48.4,22.7V8.2c0-0.4,0-0.8,0-1.3s0.1-0.9,0.2-1.4C48.8,5,49,4.6,49.4,4.2
			c0.4-0.5,0.9-0.8,1.5-1c0.5-0.2,1-0.3,1.5-0.3s0.9,0,1.3,0h1.8v3h-1.7c-0.6,0-1,0.1-1.3,0.4s-0.4,0.6-0.4,1v15.4
			C52.1,22.7,48.4,22.7,48.4,22.7z"/>
		<path class="st3" d="M61.2,23.1c-1,0-1.9-0.2-2.7-0.6s-1.3-0.9-1.6-1.6c-0.4-0.7-0.6-1.4-0.6-2.2c0-0.7,0.1-1.3,0.3-1.8
			c0.2-0.6,0.5-1.1,1-1.5s1.1-0.8,1.9-1.1c0.5-0.2,1.2-0.4,1.9-0.5s1.6-0.3,2.5-0.4c0.9-0.1,2-0.3,3.1-0.5l-1.3,0.7
			c0-0.9-0.2-1.5-0.6-1.9S64,11.1,63,11.1c-0.5,0-1.1,0.1-1.7,0.4c-0.6,0.3-1,0.7-1.2,1.4l-3.3-1.1c0.4-1.2,1.1-2.2,2.1-2.9
			c1-0.8,2.4-1.1,4.2-1.1c1.3,0,2.4,0.2,3.4,0.6c1,0.4,1.8,1.1,2.3,2.1c0.3,0.5,0.5,1.1,0.5,1.6s0.1,1.1,0.1,1.8v8.9h-3.2v-3
			l0.5,0.6c-0.7,1-1.5,1.7-2.3,2.1C63.5,22.9,62.5,23.1,61.2,23.1z M62,20.2c0.7,0,1.2-0.1,1.7-0.4c0.5-0.3,0.8-0.5,1.1-0.8
			s0.5-0.6,0.6-0.8c0.2-0.4,0.3-0.9,0.3-1.4s0-1,0-1.3l1.1,0.3c-1.1,0.2-2,0.3-2.6,0.5c-0.7,0.1-1.2,0.2-1.6,0.3
			c-0.4,0.1-0.8,0.2-1.1,0.3c-0.4,0.1-0.7,0.3-0.9,0.5s-0.4,0.3-0.5,0.5S60,18.4,60,18.6c0,0.3,0.1,0.6,0.3,0.9
			c0.2,0.2,0.4,0.4,0.7,0.5S61.6,20.2,62,20.2z"/>
		<path class="st3" d="M72.9,22.7V8.1h3.2v3.6l-0.4-0.5c0.2-0.5,0.4-1,0.8-1.4c0.3-0.4,0.7-0.8,1.2-1c0.4-0.2,0.7-0.4,1.1-0.5
			s0.8-0.2,1.3-0.2c0.4,0,0.9,0,1.3,0v3.4c-0.4-0.1-0.9-0.2-1.4-0.1c-0.5,0-1,0.2-1.5,0.4c-0.4,0.2-0.8,0.5-1.1,0.8
			c-0.3,0.3-0.5,0.7-0.7,1.2s-0.2,0.9-0.2,1.5v7.5h-3.6V22.7z"/>
		<path class="st3" d="M84,22.7V8.1h3.2V13h0.5v9.7H84z M92.8,22.7v-8.6c0-1-0.2-1.7-0.7-2.2s-1.1-0.8-1.9-0.8s-1.4,0.3-1.8,0.8
			c-0.5,0.5-0.7,1.2-0.7,2l-1.5-1.1c0-1,0.2-1.8,0.7-2.6c0.5-0.8,1.1-1.4,1.9-1.8c0.8-0.4,1.7-0.7,2.7-0.7c1.1,0,2.1,0.2,2.8,0.7
			c0.7,0.5,1.3,1.1,1.6,1.9c0.3,0.8,0.5,1.7,0.5,2.7v9.6h-3.6V22.7z M101.6,22.7v-8.6c0-1-0.2-1.7-0.7-2.2s-1.1-0.8-1.9-0.8
			c-0.5,0-1,0.1-1.3,0.4c-0.4,0.2-0.7,0.6-0.9,1c-0.2,0.4-0.3,0.9-0.3,1.5L95,13c0-1,0.2-1.9,0.7-2.6s1.1-1.4,1.9-1.8
			c0.8-0.4,1.7-0.6,2.7-0.6c1.7,0,2.9,0.5,3.8,1.5c0.8,1,1.3,2.3,1.3,3.9V23h-3.8V22.7z"/>
		<path class="st3" d="M114.7,23.1c-1.3,0-2.5-0.3-3.5-1s-1.8-1.6-2.4-2.8s-0.8-2.5-0.8-3.9c0-1.5,0.3-2.8,0.9-4s1.4-2.1,2.4-2.7
			s2.3-1,3.6-1c1.4,0,2.6,0.3,3.5,1s1.7,1.6,2.1,2.8c0.5,1.2,0.7,2.5,0.7,3.9s-0.2,2.8-0.7,3.9c-0.5,1.2-1.2,2.1-2.2,2.8
			S116.1,23.1,114.7,23.1z M115,29.6c-0.8,0-1.6-0.1-2.4-0.4s-1.4-0.6-2-1.1s-1.1-1-1.4-1.7l3.4-1.6c0.2,0.4,0.6,0.8,1,1
			s0.9,0.3,1.4,0.3s1.1-0.1,1.6-0.3c0.5-0.2,0.9-0.5,1.2-0.8c0.3-0.4,0.4-0.8,0.4-1.4v-4.2h0.5V8.1h3.2v15.6c0,0.4,0,0.7,0,1
			s-0.1,0.6-0.2,1c-0.2,0.9-0.7,1.6-1.3,2.2c-0.6,0.6-1.4,1-2.3,1.3C117.1,29.5,116.1,29.6,115,29.6z M115.3,19.9
			c0.8,0,1.5-0.2,2-0.6s0.8-0.9,1.1-1.6s0.3-1.4,0.3-2.3s-0.1-1.7-0.3-2.3s-0.6-1.2-1-1.6c-0.5-0.4-1.1-0.6-1.9-0.6s-1.5,0.2-2,0.6
			s-0.9,0.9-1.2,1.6c-0.3,0.7-0.4,1.4-0.4,2.2s0.1,1.6,0.4,2.2c0.2,0.7,0.6,1.2,1.1,1.6C113.9,19.7,114.5,19.9,115.3,19.9z"/>
		<path class="st3" d="M129.7,23.1c-1,0-1.9-0.2-2.7-0.6s-1.3-0.9-1.6-1.6c-0.4-0.7-0.6-1.4-0.6-2.2c0-0.7,0.1-1.3,0.3-1.8
			c0.2-0.6,0.5-1.1,1-1.5s1.1-0.8,1.9-1.1c0.5-0.2,1.2-0.4,1.9-0.5s1.6-0.3,2.5-0.4c0.9-0.1,2-0.3,3.1-0.5l-1.3,0.7
			c0-0.9-0.2-1.5-0.6-1.9s-1.1-0.6-2.1-0.6c-0.5,0-1.1,0.1-1.7,0.4c-0.6,0.3-1,0.7-1.2,1.4l-3.3-1.1c0.4-1.2,1.1-2.2,2.1-2.9
			c1-0.8,2.4-1.1,4.2-1.1c1.3,0,2.4,0.2,3.4,0.6c1,0.4,1.8,1.1,2.3,2.1c0.3,0.5,0.5,1.1,0.5,1.6s0.1,1.1,0.1,1.8v8.9h-3.2v-3
			l0.5,0.6c-0.7,1-1.5,1.7-2.3,2.1S130.9,23.1,129.7,23.1z M130.5,20.2c0.7,0,1.2-0.1,1.7-0.4s0.8-0.5,1.1-0.8s0.5-0.6,0.6-0.8
			c0.2-0.4,0.3-0.9,0.3-1.4s0-1,0-1.3l1.1,0.3c-1.1,0.2-2,0.3-2.6,0.5c-0.7,0.1-1.2,0.2-1.6,0.3c-0.4,0.1-0.8,0.2-1.1,0.3
			c-0.4,0.1-0.7,0.3-0.9,0.5s-0.4,0.3-0.5,0.5s-0.2,0.4-0.2,0.7c0,0.3,0.1,0.6,0.3,0.9c0.2,0.2,0.4,0.4,0.7,0.5
			C129.7,20.2,130,20.2,130.5,20.2z"/>
		<path class="st3" d="M141.3,22.7V8.1h3.2V13h0.5v9.7H141.3z M150.1,22.7v-8.6c0-1-0.2-1.7-0.7-2.2s-1.1-0.8-1.9-0.8
			c-0.8,0-1.4,0.3-1.8,0.8c-0.5,0.5-0.7,1.2-0.7,2l-1.5-1.1c0-1,0.2-1.8,0.7-2.6c0.5-0.8,1.1-1.4,1.9-1.8c0.8-0.4,1.7-0.7,2.7-0.7
			c1.1,0,2.1,0.2,2.8,0.7s1.3,1.1,1.6,1.9c0.4,0.8,0.5,1.7,0.5,2.7v9.6h-3.6V22.7z M158.9,22.7v-8.6c0-1-0.2-1.7-0.7-2.2
			s-1.1-0.8-1.9-0.8c-0.5,0-1,0.1-1.3,0.4c-0.4,0.2-0.7,0.6-0.9,1s-0.3,0.9-0.3,1.5l-1.5-1c0-1,0.2-1.9,0.7-2.6s1.1-1.4,1.9-1.8
			c0.8-0.4,1.7-0.6,2.7-0.6c1.7,0,2.9,0.5,3.8,1.5c0.9,1,1.3,2.3,1.3,3.9V23h-3.8V22.7z"/>
		<path class="st3" d="M172.6,23.1c-1.5,0-2.8-0.3-3.9-1c-1.1-0.6-2-1.5-2.7-2.7c-0.6-1.1-1-2.4-1-3.9c0-1.6,0.3-3,0.9-4.2
			c0.6-1.2,1.5-2.1,2.6-2.7c1.1-0.7,2.4-1,3.8-1c1.5,0,2.8,0.4,3.9,1.1c1.1,0.7,1.9,1.7,2.4,3s0.7,2.8,0.5,4.6h-3.6v-1.4
			c0-1.5-0.2-2.6-0.7-3.2c-0.5-0.7-1.2-1-2.3-1c-1.3,0-2.2,0.4-2.8,1.1c-0.6,0.8-0.9,1.9-0.9,3.4c0,1.4,0.3,2.4,0.9,3.2
			c0.6,0.7,1.5,1.1,2.6,1.1c0.7,0,1.3-0.2,1.8-0.5s0.9-0.8,1.2-1.4l3.7,1.1c-0.5,1.3-1.4,2.4-2.6,3.1
			C175.3,22.8,174,23.1,172.6,23.1z M167.8,16.5v-2.7h9.7v2.7H167.8z"/>
	</g>
	<path class="st3" d="M6.7,10.4v1.8V21c0,1,0.8,1.8,1.8,1.8h1.8c1,0,1.8-0.8,1.8-1.8v-4.9c0.5,0.4,1.1,0.7,1.8,0.9v1.3
		c0,0.5,0.4,0.9,0.9,0.9s0.9-0.4,0.9-0.9v-0.9c0.3,0,0.6,0,0.9,0c0.3,0,0.6,0,0.9,0v0.9c0,0.5,0.4,0.9,0.9,0.9s0.9-0.4,0.9-0.9V17
		c0.6-0.2,1.2-0.5,1.8-0.9V21c0,1,0.8,1.8,1.8,1.8h1.8c1,0,1.8-0.8,1.8-1.8v-8.9l1.8,1.8v2.7c0,0.5,0.2,1,0.4,1.5l2.3,3.5
		c0.5,0.7,1.3,1.2,2.2,1.2c1.2,0,2.3-0.9,2.6-2.1l1.1-5.6c0.1-0.7,0-1.5-0.4-2.1l-0.2-0.3V8.1c0-0.7-0.6-1.3-1.3-1.3
		s-1.3,0.6-1.3,1.3v0.8l-2.9-4.1c-1.5-2.1-3.9-3.3-6.5-3.3h-7.4H16h-4H9.4c-3.7,0-6.6,3-6.6,6.6v3c-0.8,0.7-1.3,1.6-1.3,2.8v1
		c0,0.4,0.4,0.8,0.8,0.8c1.8,0,3.2-1.4,3.2-3.2v-0.4v-1.8V8.1c0-1.3,0.7-2.5,1.7-3.3c-0.4,0.7-0.5,1.3-0.5,2V10.4z M32.4,16.5
		c0-0.5,0.4-0.9,0.9-0.9s0.9,0.4,0.9,0.9s-0.4,0.9-0.9,0.9C32.8,17.4,32.4,17,32.4,16.5z M10.6,7.2c-0.2-0.2-0.4-0.6-0.4-0.9
		c0-0.7,0.6-1.3,1.3-1.3h9.9c0.7,0,1.3,0.6,1.3,1.3c0,0.3-0.1,0.7-0.4,0.9L21,8.5c-1.2,1.2-2.8,1.9-4.5,1.9S13.2,9.7,12,8.5
		L10.6,7.2L10.6,7.2z"/>
</g>
</svg>
